<mxfile host="app.diagrams.net" modified="2023-08-22T05:22:07.548Z" agent="Mozilla/5.0 (Macintosh; Intel Mac OS X 10_15_7) AppleWebKit/537.36 (KHTML, like Gecko) Chrome/115.0.0.0 Safari/537.36 Edg/115.0.1901.203" etag="MXv9GzFGDdsnXtZ5eB1S" version="21.6.8" type="device">
  <diagram name="第 1 页" id="prLIY4g3k2Mig4bsROQ7">
    <mxGraphModel dx="1975" dy="1131" grid="1" gridSize="10" guides="1" tooltips="1" connect="1" arrows="1" fold="1" page="1" pageScale="1" pageWidth="827" pageHeight="1169" math="0" shadow="0">
      <root>
        <mxCell id="0" />
        <mxCell id="1" parent="0" />
        <mxCell id="2-5hYRP0AhvKmtBwY3xe-1" value="" style="rounded=0;whiteSpace=wrap;html=1;" vertex="1" parent="1">
          <mxGeometry x="110" y="450" width="150" height="180" as="geometry" />
        </mxCell>
        <mxCell id="2-5hYRP0AhvKmtBwY3xe-2" value="" style="rounded=0;whiteSpace=wrap;html=1;" vertex="1" parent="1">
          <mxGeometry x="140" y="473" width="150" height="180" as="geometry" />
        </mxCell>
        <mxCell id="2-5hYRP0AhvKmtBwY3xe-3" value="" style="rounded=0;whiteSpace=wrap;html=1;" vertex="1" parent="1">
          <mxGeometry x="170" y="498" width="150" height="180" as="geometry" />
        </mxCell>
        <mxCell id="2-5hYRP0AhvKmtBwY3xe-4" value="FragmentInstance-0" style="text;html=1;align=center;verticalAlign=middle;resizable=0;points=[];autosize=1;strokeColor=none;fillColor=none;" vertex="1" parent="1">
          <mxGeometry x="103" y="443" width="130" height="30" as="geometry" />
        </mxCell>
        <mxCell id="2-5hYRP0AhvKmtBwY3xe-5" value="FragmentInstance-1" style="text;html=1;align=center;verticalAlign=middle;resizable=0;points=[];autosize=1;strokeColor=none;fillColor=none;" vertex="1" parent="1">
          <mxGeometry x="131" y="468" width="130" height="30" as="geometry" />
        </mxCell>
        <mxCell id="2-5hYRP0AhvKmtBwY3xe-6" value="FragmentInstance-2" style="text;html=1;align=center;verticalAlign=middle;resizable=0;points=[];autosize=1;strokeColor=none;fillColor=none;" vertex="1" parent="1">
          <mxGeometry x="160" y="490" width="130" height="30" as="geometry" />
        </mxCell>
        <mxCell id="2-5hYRP0AhvKmtBwY3xe-25" style="edgeStyle=orthogonalEdgeStyle;rounded=0;orthogonalLoop=1;jettySize=auto;html=1;exitX=0.5;exitY=0;exitDx=0;exitDy=0;entryX=0.5;entryY=1;entryDx=0;entryDy=0;dashed=1;strokeWidth=2;" edge="1" parent="1" source="2-5hYRP0AhvKmtBwY3xe-8" target="2-5hYRP0AhvKmtBwY3xe-24">
          <mxGeometry relative="1" as="geometry" />
        </mxCell>
        <mxCell id="2-5hYRP0AhvKmtBwY3xe-8" value="" style="rounded=1;whiteSpace=wrap;html=1;fillColor=none;dashed=1;" vertex="1" parent="1">
          <mxGeometry x="90" y="430" width="250" height="285" as="geometry" />
        </mxCell>
        <mxCell id="2-5hYRP0AhvKmtBwY3xe-9" value="query-id" style="text;html=1;strokeColor=none;fillColor=none;align=center;verticalAlign=middle;whiteSpace=wrap;rounded=0;" vertex="1" parent="1">
          <mxGeometry x="103" y="410" width="60" height="20" as="geometry" />
        </mxCell>
        <mxCell id="2-5hYRP0AhvKmtBwY3xe-19" style="edgeStyle=orthogonalEdgeStyle;rounded=0;orthogonalLoop=1;jettySize=auto;html=1;exitX=0.004;exitY=0.385;exitDx=0;exitDy=0;entryX=0.99;entryY=0.053;entryDx=0;entryDy=0;entryPerimeter=0;exitPerimeter=0;strokeWidth=2;dashed=1;" edge="1" parent="1" source="2-5hYRP0AhvKmtBwY3xe-10" target="2-5hYRP0AhvKmtBwY3xe-1">
          <mxGeometry relative="1" as="geometry">
            <mxPoint x="360" y="480" as="targetPoint" />
            <Array as="points">
              <mxPoint x="480" y="669" />
              <mxPoint x="480" y="460" />
            </Array>
          </mxGeometry>
        </mxCell>
        <mxCell id="2-5hYRP0AhvKmtBwY3xe-20" style="edgeStyle=orthogonalEdgeStyle;rounded=0;orthogonalLoop=1;jettySize=auto;html=1;exitX=0;exitY=0.5;exitDx=0;exitDy=0;entryX=0.991;entryY=0.058;entryDx=0;entryDy=0;entryPerimeter=0;strokeWidth=2;dashed=1;" edge="1" parent="1" source="2-5hYRP0AhvKmtBwY3xe-10" target="2-5hYRP0AhvKmtBwY3xe-2">
          <mxGeometry relative="1" as="geometry">
            <Array as="points">
              <mxPoint x="450" y="690" />
              <mxPoint x="450" y="483" />
            </Array>
          </mxGeometry>
        </mxCell>
        <mxCell id="2-5hYRP0AhvKmtBwY3xe-21" style="edgeStyle=orthogonalEdgeStyle;rounded=0;orthogonalLoop=1;jettySize=auto;html=1;exitX=-0.009;exitY=0.647;exitDx=0;exitDy=0;entryX=0.995;entryY=0.048;entryDx=0;entryDy=0;entryPerimeter=0;exitPerimeter=0;strokeWidth=2;dashed=1;" edge="1" parent="1" source="2-5hYRP0AhvKmtBwY3xe-10" target="2-5hYRP0AhvKmtBwY3xe-3">
          <mxGeometry relative="1" as="geometry">
            <Array as="points">
              <mxPoint x="425" y="717" />
              <mxPoint x="425" y="507" />
            </Array>
          </mxGeometry>
        </mxCell>
        <mxCell id="2-5hYRP0AhvKmtBwY3xe-10" value="" style="rounded=0;whiteSpace=wrap;html=1;" vertex="1" parent="1">
          <mxGeometry x="530" y="600" width="150" height="180" as="geometry" />
        </mxCell>
        <mxCell id="2-5hYRP0AhvKmtBwY3xe-13" value="FragmentInstance-0" style="text;html=1;align=center;verticalAlign=middle;resizable=0;points=[];autosize=1;strokeColor=none;fillColor=none;" vertex="1" parent="1">
          <mxGeometry x="520" y="596" width="130" height="30" as="geometry" />
        </mxCell>
        <mxCell id="2-5hYRP0AhvKmtBwY3xe-17" value="query-id" style="text;html=1;strokeColor=none;fillColor=none;align=center;verticalAlign=middle;whiteSpace=wrap;rounded=0;" vertex="1" parent="1">
          <mxGeometry x="520" y="565" width="60" height="20" as="geometry" />
        </mxCell>
        <mxCell id="2-5hYRP0AhvKmtBwY3xe-23" value="" style="rounded=1;whiteSpace=wrap;html=1;fillColor=none;dashed=1;" vertex="1" parent="1">
          <mxGeometry x="510" y="585" width="190" height="215" as="geometry" />
        </mxCell>
        <mxCell id="2-5hYRP0AhvKmtBwY3xe-24" value="Result" style="rounded=0;whiteSpace=wrap;html=1;" vertex="1" parent="1">
          <mxGeometry x="350" y="150" width="150" height="180" as="geometry" />
        </mxCell>
        <mxCell id="2-5hYRP0AhvKmtBwY3xe-31" style="edgeStyle=orthogonalEdgeStyle;rounded=0;orthogonalLoop=1;jettySize=auto;html=1;exitX=0.5;exitY=0;exitDx=0;exitDy=0;entryX=0.509;entryY=0.964;entryDx=0;entryDy=0;entryPerimeter=0;strokeWidth=2;dashed=1;" edge="1" parent="1" source="2-5hYRP0AhvKmtBwY3xe-27" target="2-5hYRP0AhvKmtBwY3xe-30">
          <mxGeometry relative="1" as="geometry" />
        </mxCell>
        <mxCell id="2-5hYRP0AhvKmtBwY3xe-27" value="" style="rounded=1;whiteSpace=wrap;html=1;fillColor=none;dashed=1;" vertex="1" parent="1">
          <mxGeometry x="330" y="140.5" width="190" height="209.5" as="geometry" />
        </mxCell>
        <mxCell id="2-5hYRP0AhvKmtBwY3xe-28" value="query-id" style="text;html=1;strokeColor=none;fillColor=none;align=center;verticalAlign=middle;whiteSpace=wrap;rounded=0;" vertex="1" parent="1">
          <mxGeometry x="344" y="120.5" width="60" height="20" as="geometry" />
        </mxCell>
        <mxCell id="2-5hYRP0AhvKmtBwY3xe-30" value="StarRocks-FE" style="rounded=0;whiteSpace=wrap;html=1;fillColor=#ffe6cc;strokeColor=#d79b00;" vertex="1" parent="1">
          <mxGeometry x="349" y="20" width="150" height="50" as="geometry" />
        </mxCell>
      </root>
    </mxGraphModel>
  </diagram>
</mxfile>
